<?xml version="1.0" ?><svg id="Layer_1" style="enable-background:new 0 0 128 128;" version="1.1" viewBox="0 0 128 128" xml:space="preserve" xmlns="http://www.w3.org/2000/svg" xmlns:xlink="http://www.w3.org/1999/xlink"><g><path d="M127,1H1v126h126V1z M119,119H9V9h110V119z"/><polygon points="53,67.7 79.8,103.4 86.2,98.6 53,54.3 19.8,98.6 26.2,103.4  "/><path d="M89,57c9.9,0,18-8.1,18-18s-8.1-18-18-18s-18,8.1-18,18S79.1,57,89,57z M89,29c5.5,0,10,4.5,10,10s-4.5,10-10,10   s-10-4.5-10-10S83.5,29,89,29z"/></g></svg>